<svg xmlns="http://www.w3.org/2000/svg" viewBox="0 0 960 260" font-family="Verdana, sans-serif">
  <defs>
    <linearGradient id="bg2" x1="0" y1="0" x2="1" y2="0">
      <stop offset="0%" stop-color="#06090f"/>
      <stop offset="100%" stop-color="#0a0e18"/>
    </linearGradient>
  </defs>
  <rect width="960" height="260" fill="url(#bg2)"/>
  <text x="480" y="34" fill="#c8a84b" font-size="18" font-weight="bold" text-anchor="middle" letter-spacing="2">READER JOURNEY</text>

  <g font-size="12" fill="#e8dcc8" text-anchor="middle">
    <circle cx="90" cy="140" r="44" fill="#111827" stroke="#b44fff"/>
    <text x="90" y="136">Land on</text>
    <text x="90" y="152">Hero</text>

    <circle cx="270" cy="140" r="44" fill="#111827" stroke="#c8a84b"/>
    <text x="270" y="130">Draw card,</text>
    <text x="270" y="146">spread, or</text>
    <text x="270" y="162">browse grid</text>

    <circle cx="470" cy="140" r="44" fill="#111827" stroke="#4488ff"/>
    <text x="470" y="130">Reading or</text>
    <text x="470" y="146">Spread modal</text>
    <text x="470" y="162">reveals fate</text>

    <circle cx="670" cy="140" r="44" fill="#111827" stroke="#ff44bb"/>
    <text x="670" y="130">Draw logged</text>
    <text x="670" y="146">to Reading</text>
    <text x="670" y="162">Journal</text>

    <circle cx="860" cy="140" r="44" fill="#111827" stroke="#00ffcc"/>
    <text x="860" y="130">Revisit</text>
    <text x="860" y="146">journal</text>
    <text x="860" y="162">anytime</text>
  </g>

  <g stroke="#c8a84b" stroke-opacity="0.7" stroke-width="1.5" fill="none">
    <line x1="134" y1="140" x2="226" y2="140"/>
    <line x1="314" y1="140" x2="426" y2="140"/>
    <line x1="514" y1="140" x2="626" y2="140"/>
    <line x1="714" y1="140" x2="816" y2="140"/>
  </g>
  <polygon points="220,135 230,140 220,145" fill="#c8a84b"/>
  <polygon points="420,135 430,140 420,145" fill="#c8a84b"/>
  <polygon points="620,135 630,140 620,145" fill="#c8a84b"/>
  <polygon points="810,135 820,140 810,145" fill="#c8a84b"/>
</svg>
